<?xml version="1.0" encoding="UTF-8" standalone="no"?>
<svg
   xmlns:dc="http://purl.org/dc/elements/1.1/"
   xmlns:cc="http://creativecommons.org/ns#"
   xmlns:rdf="http://www.w3.org/1999/02/22-rdf-syntax-ns#"
   xmlns:svg="http://www.w3.org/2000/svg"
   xmlns="http://www.w3.org/2000/svg"
   xmlns:sodipodi="http://sodipodi.sourceforge.net/DTD/sodipodi-0.dtd"
   xmlns:inkscape="http://www.inkscape.org/namespaces/inkscape"
   width="1024"
   height="1024"
   viewBox="0 0 270.93334 270.93334"
   version="1.1"
   id="svg8"
   sodipodi:docname="logo.svg"
   inkscape:version="1.0.1 (3bc2e813f5, 2020-09-07)">
  <defs
     id="defs2">
    <rect
       x="169.33333"
       y="136.07143"
       width="128.5119"
       height="12.85119"
       id="rect52" />
    <rect
       x="12.85119"
       y="13.607143"
       width="188.98808"
       height="271.3869"
       id="rect44" />
    <rect
       x="6.8035712"
       y="9.8273811"
       width="195.03571"
       height="277.43451"
       id="rect34" />
    <rect
       x="3.0238094"
       y="5.2916665"
       width="196.54762"
       height="281.21429"
       id="rect28" />
    <rect
       x="19.654762"
       y="43.089287"
       width="184.45238"
       height="217.71429"
       id="rect18" />
  </defs>
  <sodipodi:namedview
     id="base"
     pagecolor="#ffffff"
     bordercolor="#666666"
     borderopacity="1.0"
     inkscape:pageopacity="0.0"
     inkscape:pageshadow="2"
     inkscape:zoom="0.5"
     inkscape:cx="314.57073"
     inkscape:cy="235.96924"
     inkscape:document-units="mm"
     inkscape:current-layer="layer2"
     inkscape:document-rotation="0"
     showgrid="false"
     inkscape:window-width="1920"
     inkscape:window-height="1017"
     inkscape:window-x="-8"
     inkscape:window-y="-8"
     inkscape:window-maximized="1"
     units="px"
     width="994.85028mm"
     showguides="false" />
  <metadata
     id="metadata5">
    <rdf:RDF>
      <cc:Work
         rdf:about="">
        <dc:format>image/svg+xml</dc:format>
        <dc:type
           rdf:resource="http://purl.org/dc/dcmitype/StillImage" />
        <dc:title></dc:title>
      </cc:Work>
    </rdf:RDF>
  </metadata>
  <g
     inkscape:groupmode="layer"
     id="layer2"
     inkscape:label="background"
     transform="translate(-13.125885,-81.099339)"
     style="display:inline">
    <g
       id="g930"
       style="opacity:1">
      <path
         style="color:#000000;font-style:normal;font-variant:normal;font-weight:normal;font-stretch:normal;font-size:medium;line-height:normal;font-family:sans-serif;font-variant-ligatures:normal;font-variant-position:normal;font-variant-caps:normal;font-variant-numeric:normal;font-variant-alternates:normal;font-variant-east-asian:normal;font-feature-settings:normal;font-variation-settings:normal;text-indent:0;text-align:start;text-decoration:none;text-decoration-line:none;text-decoration-style:solid;text-decoration-color:#000000;letter-spacing:normal;word-spacing:normal;text-transform:none;writing-mode:lr-tb;direction:ltr;text-orientation:mixed;dominant-baseline:auto;baseline-shift:baseline;text-anchor:start;white-space:normal;shape-padding:0;shape-margin:0;inline-size:0;clip-rule:nonzero;display:inline;overflow:visible;visibility:visible;isolation:auto;mix-blend-mode:normal;color-interpolation:sRGB;color-interpolation-filters:linearRGB;solid-color:#000000;solid-opacity:1;vector-effect:none;fill:#6c5353;fill-opacity:1;fill-rule:nonzero;stroke-width:0.267269;stroke-linecap:butt;stroke-linejoin:miter;stroke-miterlimit:4;stroke-dasharray:none;stroke-dashoffset:0;stroke-opacity:1.0;color-rendering:auto;image-rendering:auto;shape-rendering:auto;text-rendering:auto;enable-background:accumulate;stop-color:#000000;stop-opacity:1;stroke:none;"
         d="m 37.77844,100.91317 h 110.84055 110.84056 l 0.15589,24.25471 c 1.20308,61.16583 3.72042,134.36291 20.12975,187.08504 -97.43975,0 -97.55978,0.009 -262.365972,0.004 15.483057,-68.09509 19.86144,-146.92597 20.399222,-211.34375 z"
         id="path932" />
      <path
         style="color:#000000;font-style:normal;font-variant:normal;font-weight:normal;font-stretch:normal;font-size:medium;line-height:normal;font-family:sans-serif;font-variant-ligatures:normal;font-variant-position:normal;font-variant-caps:normal;font-variant-numeric:normal;font-variant-alternates:normal;font-variant-east-asian:normal;font-feature-settings:normal;font-variation-settings:normal;text-indent:0;text-align:start;text-decoration:none;text-decoration-line:none;text-decoration-style:solid;text-decoration-color:#000000;letter-spacing:normal;word-spacing:normal;text-transform:none;writing-mode:lr-tb;direction:ltr;text-orientation:mixed;dominant-baseline:auto;baseline-shift:baseline;text-anchor:start;white-space:normal;shape-padding:0;shape-margin:0;inline-size:0;clip-rule:nonzero;display:inline;overflow:visible;visibility:visible;isolation:auto;mix-blend-mode:normal;color-interpolation:sRGB;color-interpolation-filters:linearRGB;solid-color:#000000;solid-opacity:1;vector-effect:none;fill-opacity:1;fill-rule:nonzero;stroke-width:0.267269;stroke-linecap:butt;stroke-linejoin:miter;stroke-miterlimit:4;stroke-dasharray:none;stroke-dashoffset:0;stroke-opacity:1.0;color-rendering:auto;image-rendering:auto;shape-rendering:auto;text-rendering:auto;enable-background:accumulate;stop-color:#000000;stop-opacity:1;stroke:none;"
         d="M 37.646484 100.7793 L 37.644531 100.91211 C 37.106792 165.32474 32.727368 244.1479 17.248047 312.22656 L 17.210938 312.39062 L 17.378906 312.39062 C 182.1851 312.39563 182.30635 312.38672 279.74609 312.38672 L 279.92578 312.38672 L 279.87305 312.21289 C 263.47316 259.52111 260.95306 186.33185 259.75 125.16797 L 259.75 125.16602 L 259.5918 100.7793 L 148.61914 100.7793 L 37.646484 100.7793 z M 37.908203 101.04688 L 148.61914 101.04688 L 259.32617 101.04688 L 259.48242 125.16992 C 260.68427 186.27301 263.19816 259.37974 279.57031 312.11914 C 182.38689 312.11915 181.93009 312.12802 17.542969 312.12305 C 32.989898 244.09304 37.366122 165.39561 37.908203 101.04688 z "
         id="path934" />
    </g>
    <path
       style="fill:#b7c8c4;fill-opacity:1;stroke:none;stroke-width:8;stroke-miterlimit:4;stroke-dasharray:none"
       d="m 14.838153,873.22452 992.856847,0.42682 -72.96534,76.78417 -850.628345,3.99998 z"
       id="path876"
       transform="matrix(0.26458333,0,0,0.26458333,13.125885,81.099339)"
       sodipodi:nodetypes="ccccc" />
    <path
       style="color:#000000;font-style:normal;font-variant:normal;font-weight:normal;font-stretch:normal;font-size:medium;line-height:normal;font-family:sans-serif;font-variant-ligatures:normal;font-variant-position:normal;font-variant-caps:normal;font-variant-numeric:normal;font-variant-alternates:normal;font-variant-east-asian:normal;font-feature-settings:normal;font-variation-settings:normal;text-indent:0;text-align:start;text-decoration:none;text-decoration-line:none;text-decoration-style:solid;text-decoration-color:#000000;letter-spacing:normal;word-spacing:normal;text-transform:none;writing-mode:lr-tb;direction:ltr;text-orientation:mixed;dominant-baseline:auto;baseline-shift:baseline;text-anchor:start;white-space:normal;shape-padding:0;shape-margin:0;inline-size:0;clip-rule:nonzero;display:inline;overflow:visible;visibility:visible;isolation:auto;mix-blend-mode:normal;color-interpolation:sRGB;color-interpolation-filters:linearRGB;solid-color:#000000;solid-opacity:1;vector-effect:none;fill:#000000;fill-opacity:1;fill-rule:nonzero;stroke:none;stroke-width:2.11667;stroke-linecap:butt;stroke-linejoin:miter;stroke-miterlimit:4;stroke-dasharray:none;stroke-dashoffset:0;stroke-opacity:1;color-rendering:auto;image-rendering:auto;shape-rendering:auto;text-rendering:auto;enable-background:accumulate;stop-color:#000000;stop-opacity:1;opacity:1"
       d="M 16.779297 311.22266 L 15.199219 312.63281 L 34.90625 334.6875 L 260.89258 333.625 L 280.92188 312.81641 L 279.39648 311.34766 L 259.98828 331.51172 L 35.849609 332.56641 L 16.779297 311.22266 z "
       id="path928" />
    <g
       id="g920"
       style="opacity:1">
      <path
         style="color:#000000;font-style:normal;font-variant:normal;font-weight:normal;font-stretch:normal;font-size:medium;line-height:normal;font-family:sans-serif;font-variant-ligatures:normal;font-variant-position:normal;font-variant-caps:normal;font-variant-numeric:normal;font-variant-alternates:normal;font-variant-east-asian:normal;font-feature-settings:normal;font-variation-settings:normal;text-indent:0;text-align:start;text-decoration:none;text-decoration-line:none;text-decoration-style:solid;text-decoration-color:#000000;letter-spacing:normal;word-spacing:normal;text-transform:none;writing-mode:lr-tb;direction:ltr;text-orientation:mixed;dominant-baseline:auto;baseline-shift:baseline;text-anchor:start;white-space:normal;shape-padding:0;shape-margin:0;inline-size:0;clip-rule:nonzero;display:inline;overflow:visible;visibility:visible;isolation:auto;mix-blend-mode:normal;color-interpolation:sRGB;color-interpolation-filters:linearRGB;solid-color:#000000;solid-opacity:1;vector-effect:none;fill:#333333;fill-opacity:1;fill-rule:nonzero;stroke-width:0.133635;stroke-linecap:butt;stroke-linejoin:miter;stroke-miterlimit:4;stroke-dasharray:none;stroke-dashoffset:0;stroke-opacity:1.0;color-rendering:auto;image-rendering:auto;shape-rendering:auto;text-rendering:auto;enable-background:accumulate;stop-color:#000000;stop-opacity:1;stroke:none;"
         d="m 37.541301,100.68961 c 73.868949,-0.14845 148.067029,0.13852 222.101019,-0.12607 0.23057,12.23072 0.0148,25.14106 0.21089,34.91816 l -111.23471,-0.17722 -111.149485,0.0475 c 0.16435,-11.61314 0.114974,-24.11461 0.07229,-34.66241 z"
         id="path922" />
      <path
         style="color:#000000;font-style:normal;font-variant:normal;font-weight:normal;font-stretch:normal;font-size:medium;line-height:normal;font-family:sans-serif;font-variant-ligatures:normal;font-variant-position:normal;font-variant-caps:normal;font-variant-numeric:normal;font-variant-alternates:normal;font-variant-east-asian:normal;font-feature-settings:normal;font-variation-settings:normal;text-indent:0;text-align:start;text-decoration:none;text-decoration-line:none;text-decoration-style:solid;text-decoration-color:#000000;letter-spacing:normal;word-spacing:normal;text-transform:none;writing-mode:lr-tb;direction:ltr;text-orientation:mixed;dominant-baseline:auto;baseline-shift:baseline;text-anchor:start;white-space:normal;shape-padding:0;shape-margin:0;inline-size:0;clip-rule:nonzero;display:inline;overflow:visible;visibility:visible;isolation:auto;mix-blend-mode:normal;color-interpolation:sRGB;color-interpolation-filters:linearRGB;solid-color:#000000;solid-opacity:1;vector-effect:none;fill-opacity:1;fill-rule:nonzero;stroke-width:0.133635;stroke-linecap:butt;stroke-linejoin:miter;stroke-miterlimit:4;stroke-dasharray:none;stroke-dashoffset:0;stroke-opacity:1.0;color-rendering:auto;image-rendering:auto;shape-rendering:auto;text-rendering:auto;enable-background:accumulate;stop-color:#000000;stop-opacity:1;stroke:none;"
         d="M 259.64258 100.49609 C 185.60892 100.76068 111.41023 100.4746 37.541016 100.62305 L 37.601562 100.68945 L 37.474609 100.68359 L 37.474609 100.68945 L 37.466797 100.75586 L 37.474609 100.75586 C 37.517236 111.29091 37.566367 123.76154 37.402344 135.35156 L 37.400391 135.41797 L 148.61914 135.37109 L 259.92188 135.54883 L 259.91992 135.48047 C 259.72388 125.70553 259.93959 112.79489 259.70898 100.5625 L 259.70703 100.49609 L 259.64258 100.49609 z M 259.57617 100.63086 C 259.80413 112.81528 259.59334 125.66035 259.78711 135.41406 L 148.61914 135.23828 L 37.535156 135.28516 C 37.698041 123.71282 37.649965 111.2701 37.607422 100.75586 C 111.43213 100.60776 185.58602 100.89496 259.57617 100.63086 z "
         id="path924" />
    </g>
    <g
       aria-label="P"
       id="text133"
       style="font-style:normal;font-weight:normal;font-size:174.366px;line-height:1.25;font-family:sans-serif;fill:#f2f2f2;fill-opacity:1;stroke:#000000;stroke-width:2.11667;stroke-miterlimit:4;stroke-dasharray:none">
      <g
         id="g898"
         style="opacity:1">
        <path
           style="color:#000000;font-style:normal;font-variant:normal;font-weight:normal;font-stretch:normal;font-size:174.366px;line-height:1.25;font-family:'Sonsie One';-inkscape-font-specification:'Sonsie One';font-variant-ligatures:normal;font-variant-position:normal;font-variant-caps:normal;font-variant-numeric:normal;font-variant-alternates:normal;font-variant-east-asian:normal;font-feature-settings:normal;font-variation-settings:normal;text-indent:0;text-align:start;text-decoration:none;text-decoration-line:none;text-decoration-style:solid;text-decoration-color:#000000;letter-spacing:normal;word-spacing:normal;text-transform:none;writing-mode:lr-tb;direction:ltr;text-orientation:mixed;dominant-baseline:auto;baseline-shift:baseline;text-anchor:start;white-space:normal;shape-padding:0;shape-margin:0;inline-size:0;clip-rule:nonzero;display:inline;overflow:visible;visibility:visible;isolation:auto;mix-blend-mode:normal;color-interpolation:sRGB;color-interpolation-filters:linearRGB;solid-color:#000000;solid-opacity:1;vector-effect:none;fill:#f2f2f2;fill-opacity:1;fill-rule:nonzero;stroke:none;stroke-width:2.11667;stroke-linecap:butt;stroke-linejoin:miter;stroke-miterlimit:4;stroke-dasharray:none;stroke-dashoffset:0;stroke-opacity:1.0;color-rendering:auto;image-rendering:auto;shape-rendering:auto;text-rendering:auto;enable-background:accumulate;stop-color:#000000;stop-opacity:1;"
           d="m 152.65801,195.09187 c -3.46235,5.56245 -9.13832,20.91597 -17.02793,46.06055 1.87307,0.11352 4.6543,0.17028 8.34369,0.17028 11.35195,0 20.91597,-3.88805 28.69206,-11.66414 7.83285,-7.77609 11.74927,-17.87932 11.74927,-30.30971 0,-18.16313 -10.92626,-27.24469 -32.77877,-27.24469 -8.62748,0 -16.97116,0.62436 -25.03105,1.87307 -8.00313,1.24872 -14.33184,2.61096 -18.98614,4.08671 -4.65431,1.47575 -8.93967,2.83799 -12.856091,4.0867 -3.916423,1.24871 -6.498993,1.87307 -7.747708,1.87307 -2.837988,0 -4.256982,-1.02167 -4.256982,-3.06502 0,-2.04335 1.929832,-4.11509 5.789496,-6.2152 3.916424,-2.15687 8.372066,-4.2286 13.366925,-6.21519 4.99486,-2.04335 11.18167,-4.17185 18.56044,-6.38548 16.74413,-5.10837 34.87888,-7.66256 54.40424,-7.66256 25.76893,0 43.3077,5.73273 52.6163,17.1982 5.05162,6.18682 7.57743,13.65073 7.57743,22.39173 0,16.57385 -6.89631,30.25296 -20.68894,41.03731 -11.74927,9.19508 -27.01764,15.04134 -45.80513,17.53877 -5.50569,0.73787 -11.80603,1.10681 -18.901,1.10681 -7.03821,0 -12.88446,-0.48246 -17.53877,-1.44737 -2.38391,7.66257 -4.25698,13.50882 -5.61921,17.53877 -1.30547,4.02994 -2.78123,7.26525 -4.42726,9.70592 -1.64603,2.44067 -3.40559,4.3705 -5.27866,5.78949 -1.81631,1.41899 -4.14346,2.49743 -6.98145,3.23531 -4.48403,1.19195 -10.472183,1.78793 -17.964469,1.78793 -7.435529,0 -14.50212,-0.82302 -21.199772,-2.46905 -6.697652,-1.64603 -12.00469,-3.661 -15.921114,-6.04491 -3.973183,-2.38391 -5.959775,-4.71106 -5.959775,-6.98145 0,-1.30548 0.567598,-2.35554 1.702793,-3.15017 1.135195,-0.79464 2.44067,-1.19196 3.916423,-1.19196 5.221899,0 9.081563,-0.82302 11.578992,-2.46905 2.55419,-1.70279 4.99486,-4.82457 7.32201,-9.36536 2.38391,-4.54078 4.73944,-9.81944 7.066591,-15.83597 2.38391,-6.07329 4.597541,-11.69251 6.640892,-16.85765 2.043352,-5.2219 4.370502,-10.52894 6.981451,-15.92111 5.732739,-11.80603 12.515528,-19.55374 20.348378,-23.24313 3.8029,-1.81631 8.76938,-3.20693 14.89944,-4.17184 6.13005,-1.02167 10.92625,-1.53251 14.3886,-1.53251 3.5191,0 5.78949,0.0568 6.81117,0.17027 1.07843,0.0567 2.15687,0.22701 3.23531,0.51084 2.15687,0.5676 3.2353,1.75956 3.2353,3.57587 0,1.24871 -0.25542,2.41229 -0.76626,3.49072 -0.45407,1.02168 -1.61765,3.09341 -3.49072,6.2152 z"
           id="path900" />
        <path
           style="color:#000000;font-style:normal;font-variant:normal;font-weight:normal;font-stretch:normal;font-size:174.366px;line-height:1.25;font-family:'Sonsie One';-inkscape-font-specification:'Sonsie One';font-variant-ligatures:normal;font-variant-position:normal;font-variant-caps:normal;font-variant-numeric:normal;font-variant-alternates:normal;font-variant-east-asian:normal;font-feature-settings:normal;font-variation-settings:normal;text-indent:0;text-align:start;text-decoration:none;text-decoration-line:none;text-decoration-style:solid;text-decoration-color:#000000;letter-spacing:normal;word-spacing:normal;text-transform:none;writing-mode:lr-tb;direction:ltr;text-orientation:mixed;dominant-baseline:auto;baseline-shift:baseline;text-anchor:start;white-space:normal;shape-padding:0;shape-margin:0;inline-size:0;clip-rule:nonzero;display:inline;overflow:visible;visibility:visible;isolation:auto;mix-blend-mode:normal;color-interpolation:sRGB;color-interpolation-filters:linearRGB;solid-color:#000000;solid-opacity:1;vector-effect:none;fill:#000000;fill-opacity:1;fill-rule:nonzero;stroke:none;stroke-width:2.11667;stroke-linecap:butt;stroke-linejoin:miter;stroke-miterlimit:4;stroke-dasharray:none;stroke-dashoffset:0;stroke-opacity:1.0;color-rendering:auto;image-rendering:auto;shape-rendering:auto;text-rendering:auto;enable-background:accumulate;stop-color:#000000;stop-opacity:1;"
           d="M 174.87891 153.42188 C 155.26352 153.42188 137.0242 155.98822 120.17188 161.12891 C 112.77416 163.34823 106.56194 165.48415 101.52344 167.54492 C 101.52196 167.54551 101.52101 167.54629 101.51953 167.54688 C 101.51795 167.54752 101.51525 167.54818 101.51367 167.54883 C 96.491238 169.54681 92.001664 171.63462 88.042969 173.81445 C 86.049848 174.89895 84.514839 175.98754 83.431641 177.15039 C 82.348442 178.31324 81.699219 179.60413 81.699219 180.95898 C 81.699219 182.22564 82.224072 183.41086 83.205078 184.11719 C 84.186085 184.82351 85.469631 185.08203 87.015625 185.08203 C 88.617118 185.08203 91.136546 184.41681 95.083984 183.1582 C 98.999764 181.90969 103.2856 180.54787 107.93945 179.07227 C 112.50914 177.62334 118.79632 176.26718 126.76758 175.02344 C 134.77101 173.78347 143.0603 173.16211 151.63672 173.16211 C 162.41637 173.16211 170.34657 175.40943 175.54297 179.72852 C 180.73937 184.0476 183.35742 190.48026 183.35742 199.34961 C 183.35742 211.5577 179.55267 221.33076 171.91992 228.9082 L 171.91797 228.9082 L 171.91797 228.91016 C 164.32396 236.50417 155.0849 240.26367 143.97461 240.26367 C 140.91727 240.26367 138.87655 240.2021 137.0918 240.125 C 144.70823 215.97713 150.35427 200.79519 153.55664 195.65039 L 153.56055 195.64453 L 153.56641 195.63672 C 155.4422 192.51041 156.59478 190.47134 157.10742 189.32031 C 157.68307 188.10154 157.97266 186.77632 157.97266 185.38672 C 157.97266 184.2691 157.60927 183.21422 156.89062 182.41992 C 156.17198 181.62562 155.162 181.10626 153.94922 180.78711 C 152.81465 180.48851 151.67446 180.31041 150.5332 180.24805 C 149.37497 180.12094 147.14937 180.07031 143.63281 180.07031 C 140.06849 180.07031 135.23675 180.58947 129.08008 181.61523 C 122.88247 182.59078 117.82536 183.99869 113.88867 185.87891 C 105.75487 189.71245 98.839994 197.67888 93.044922 209.61328 L 93.044922 209.61523 C 90.422768 215.03055 88.083344 220.3621 86.029297 225.61133 C 83.985948 230.77647 81.772302 236.39617 79.388672 242.46875 L 79.388672 242.4707 L 79.386719 242.47266 C 77.071115 248.45934 74.731463 253.70328 72.371094 258.19922 L 72.369141 258.20312 L 72.365234 258.20898 C 70.085273 262.6577 67.714792 265.63155 65.398438 267.17578 C 63.183546 268.63353 59.513611 269.4668 54.40625 269.4668 C 52.740538 269.4668 51.194516 269.93141 49.882812 270.84961 C 48.524556 271.80038 47.728516 273.25495 47.728516 274.86719 C 47.728516 276.31106 48.369015 277.71107 49.472656 279.00391 C 50.576297 280.29674 52.152982 281.52577 54.203125 282.75586 C 58.255488 285.22154 63.652439 287.25964 70.416016 288.92188 C 77.201814 290.58957 84.355515 291.42188 91.869141 291.42188 C 99.41472 291.42188 105.4748 290.82822 110.09961 289.59961 L 110.10547 289.59766 C 113.04568 288.83249 115.50596 287.70221 117.46094 286.17578 C 119.44462 284.67121 121.27618 282.65514 122.9707 280.14258 C 124.69315 277.58861 126.19823 274.2713 127.52344 270.18359 L 127.52734 270.16992 C 128.82801 266.32167 130.65662 260.59336 132.87695 253.47266 C 137.48077 254.34406 143.01306 254.81055 149.67773 254.81055 C 156.8094 254.81055 163.15373 254.44114 168.71875 253.69531 C 187.64585 251.17932 203.10886 245.27656 215.03711 235.94141 C 229.03698 224.99501 236.13086 210.93775 236.13086 194.07031 C 236.13086 185.12643 233.52325 177.38727 228.31836 171.01172 L 228.31641 171.00977 C 218.70618 159.17473 200.80325 153.42188 174.87891 153.42188 z M 174.87891 155.53906 C 200.49088 155.53906 217.66644 161.25124 226.67383 172.3457 L 226.67578 172.3457 L 226.67578 172.34766 C 231.57297 178.34534 234.01562 185.53319 234.01562 194.07031 C 234.01562 210.35059 227.3178 223.65113 213.73242 234.27344 C 202.16214 243.32844 187.08733 249.11878 168.43945 251.59766 C 162.99308 252.32758 156.73602 252.69531 149.67773 252.69531 C 142.68789 252.69531 136.90399 252.21292 132.35352 251.26953 L 131.41406 251.07422 L 131.12891 251.99219 C 128.74635 259.65041 126.87462 265.49126 125.51758 269.50586 L 125.51562 269.51172 L 125.51367 269.51758 C 124.22908 273.48305 122.78242 276.63465 121.21484 278.95898 C 119.6197 281.32419 117.935 283.16336 116.17578 284.49609 L 116.16797 284.50195 L 116.16211 284.50586 C 114.4864 285.81501 112.29771 286.84064 109.56641 287.55078 L 109.56445 287.55078 L 109.56055 287.55273 C 105.21796 288.70709 99.305303 289.30469 91.869141 289.30469 C 84.511707 289.30469 77.531381 288.49156 70.921875 286.86719 C 64.292786 285.238 59.076829 283.24615 55.296875 280.94531 L 55.294922 280.94336 L 55.291016 280.94141 C 53.367975 279.78758 51.964982 278.66322 51.082031 277.62891 C 50.199081 276.59459 49.845703 275.6937 49.845703 274.86719 C 49.845703 273.86847 50.185522 273.22248 51.097656 272.58398 C 52.056344 271.9129 53.120455 271.58398 54.40625 271.58398 C 59.739351 271.58398 63.787936 270.77201 66.568359 268.93945 L 66.570312 268.93945 L 66.572266 268.9375 C 69.362012 267.07768 71.871519 263.81045 74.244141 259.18359 L 74.244141 259.18164 C 76.650491 254.59795 79.021717 249.28531 81.359375 243.24219 L 81.361328 243.23633 C 83.744018 237.16616 85.957751 231.54907 88 226.38672 L 88 226.38477 L 88 226.38281 C 90.032447 221.18878 92.349803 215.90752 94.949219 210.53906 L 94.949219 210.53711 C 100.61798 198.86342 107.26803 191.33721 114.79688 187.79102 L 114.79883 187.78906 L 114.80078 187.78906 C 118.46989 186.03665 123.34569 184.66131 129.4082 183.70703 L 129.41406 183.70703 L 129.41797 183.70508 C 135.51615 182.68872 140.27456 182.1875 143.63281 182.1875 C 147.14053 182.1875 149.43899 182.25278 150.32812 182.35156 L 150.35742 182.35547 L 150.38867 182.35547 C 151.39313 182.40831 152.3989 182.56784 153.41016 182.83398 C 154.35425 183.08243 154.96248 183.44218 155.32227 183.83984 C 155.68205 184.2375 155.85742 184.68802 155.85742 185.38672 C 155.85742 186.49111 155.63459 187.48821 155.19141 188.42383 L 155.1875 188.43555 L 155.18164 188.44727 C 154.78444 189.34099 153.61628 191.43641 151.75 194.54688 L 151.75977 194.5332 C 148.10993 200.39686 142.51727 215.67043 134.62109 240.83594 L 134.21484 242.12695 L 135.56641 242.20898 C 137.48136 242.32504 140.27437 242.38086 143.97461 242.38086 C 155.56821 242.38086 165.45589 238.36442 173.41406 230.40625 C 181.44495 222.43191 185.47266 212.00068 185.47266 199.34961 C 185.47266 190.05583 182.62634 182.86404 176.89648 178.10156 C 171.16663 173.33909 162.70958 171.04492 151.63672 171.04492 C 142.95818 171.04492 134.55971 171.67418 126.44336 172.93164 L 126.44141 172.93164 C 118.40641 174.18533 112.03774 175.55211 107.29883 177.05469 C 102.64407 178.53058 98.358468 179.89366 94.441406 181.14258 C 90.555998 182.3814 87.911563 182.96484 87.015625 182.96484 C 85.723631 182.96484 84.879394 182.71379 84.441406 182.39844 C 84.003419 182.08309 83.816406 181.73567 83.816406 180.95898 C 83.816406 180.27049 84.133835 179.50264 84.980469 178.59375 C 85.827102 177.68486 87.186191 176.68945 89.052734 175.67383 L 89.056641 175.67188 L 89.058594 175.66992 C 92.928752 173.53853 97.345735 171.4848 102.30664 169.51172 L 102.31055 169.50977 L 102.31641 169.50781 C 107.26619 167.4829 113.42342 165.36302 120.7793 163.15625 L 120.78125 163.15625 L 120.7832 163.1543 C 137.41752 158.07943 155.44584 155.53906 174.87891 155.53906 z "
           id="path902" />
      </g>
    </g>
    <path
       style="color:#000000;font-style:normal;font-variant:normal;font-weight:normal;font-stretch:normal;font-size:medium;line-height:normal;font-family:sans-serif;font-variant-ligatures:normal;font-variant-position:normal;font-variant-caps:normal;font-variant-numeric:normal;font-variant-alternates:normal;font-variant-east-asian:normal;font-feature-settings:normal;font-variation-settings:normal;text-indent:0;text-align:start;text-decoration:none;text-decoration-line:none;text-decoration-style:solid;text-decoration-color:#000000;letter-spacing:normal;word-spacing:normal;text-transform:none;writing-mode:lr-tb;direction:ltr;text-orientation:mixed;dominant-baseline:auto;baseline-shift:baseline;text-anchor:start;white-space:normal;shape-padding:0;shape-margin:0;inline-size:0;clip-rule:nonzero;display:inline;overflow:visible;visibility:visible;isolation:auto;mix-blend-mode:normal;color-interpolation:sRGB;color-interpolation-filters:linearRGB;solid-color:#000000;solid-opacity:1;vector-effect:none;fill:#000000;fill-opacity:1;fill-rule:nonzero;stroke:none;stroke-width:2.11667;stroke-linecap:butt;stroke-linejoin:miter;stroke-miterlimit:4;stroke-dasharray:none;stroke-dashoffset:0;stroke-opacity:1;color-rendering:auto;image-rendering:auto;shape-rendering:auto;text-rendering:auto;enable-background:accumulate;stop-color:#000000;stop-opacity:1;opacity:1"
       d="M 38.455078 99.505859 L 38.455078 101.62109 L 258.7168 101.62109 L 258.7168 99.505859 L 38.455078 99.505859 z "
       id="path918" />
    <path
       style="color:#000000;font-style:normal;font-variant:normal;font-weight:normal;font-stretch:normal;font-size:medium;line-height:normal;font-family:sans-serif;font-variant-ligatures:normal;font-variant-position:normal;font-variant-caps:normal;font-variant-numeric:normal;font-variant-alternates:normal;font-variant-east-asian:normal;font-feature-settings:normal;font-variation-settings:normal;text-indent:0;text-align:start;text-decoration:none;text-decoration-line:none;text-decoration-style:solid;text-decoration-color:#000000;letter-spacing:normal;word-spacing:normal;text-transform:none;writing-mode:lr-tb;direction:ltr;text-orientation:mixed;dominant-baseline:auto;baseline-shift:baseline;text-anchor:start;white-space:normal;shape-padding:0;shape-margin:0;inline-size:0;clip-rule:nonzero;display:inline;overflow:visible;visibility:visible;isolation:auto;mix-blend-mode:normal;color-interpolation:sRGB;color-interpolation-filters:linearRGB;solid-color:#000000;solid-opacity:1;vector-effect:none;fill:#000000;fill-opacity:1;fill-rule:nonzero;stroke:none;stroke-width:2.11667;stroke-linecap:butt;stroke-linejoin:miter;stroke-miterlimit:4;stroke-dasharray:none;stroke-dashoffset:0;stroke-opacity:1;color-rendering:auto;image-rendering:auto;shape-rendering:auto;text-rendering:auto;enable-background:accumulate;stop-color:#000000;stop-opacity:1;opacity:1"
       d="M 38.470703 99.501953 L 36.355469 99.527344 C 36.355469 99.527344 36.797999 135.92483 34.369141 180.78125 C 31.940282 225.63767 26.60986 278.97822 15.191406 312.61328 L 17.195312 313.29492 C 28.767637 279.20661 34.049471 225.82849 36.482422 180.89648 C 38.915373 135.96448 38.470703 99.501953 38.470703 99.501953 z "
       id="path914" />
    <path
       style="color:#000000;font-style:normal;font-variant:normal;font-weight:normal;font-stretch:normal;font-size:medium;line-height:normal;font-family:sans-serif;font-variant-ligatures:normal;font-variant-position:normal;font-variant-caps:normal;font-variant-numeric:normal;font-variant-alternates:normal;font-variant-east-asian:normal;font-feature-settings:normal;font-variation-settings:normal;text-indent:0;text-align:start;text-decoration:none;text-decoration-line:none;text-decoration-style:solid;text-decoration-color:#000000;letter-spacing:normal;word-spacing:normal;text-transform:none;writing-mode:lr-tb;direction:ltr;text-orientation:mixed;dominant-baseline:auto;baseline-shift:baseline;text-anchor:start;white-space:normal;shape-padding:0;shape-margin:0;inline-size:0;clip-rule:nonzero;display:inline;overflow:visible;visibility:visible;isolation:auto;mix-blend-mode:normal;color-interpolation:sRGB;color-interpolation-filters:linearRGB;solid-color:#000000;solid-opacity:1;vector-effect:none;fill:#000000;fill-opacity:1;fill-rule:nonzero;stroke:none;stroke-width:2.11667;stroke-linecap:butt;stroke-linejoin:miter;stroke-miterlimit:4;stroke-dasharray:none;stroke-dashoffset:0;stroke-opacity:1;color-rendering:auto;image-rendering:auto;shape-rendering:auto;text-rendering:auto;enable-background:accumulate;stop-color:#000000;stop-opacity:1;opacity:1"
       d="M 37.466797 134.42383 L 37.466797 136.53906 L 259.85352 136.53906 L 259.85352 134.42383 L 37.466797 134.42383 z "
       id="path910" />
    <path
       style="color:#000000;font-style:normal;font-variant:normal;font-weight:normal;font-stretch:normal;font-size:medium;line-height:normal;font-family:sans-serif;font-variant-ligatures:normal;font-variant-position:normal;font-variant-caps:normal;font-variant-numeric:normal;font-variant-alternates:normal;font-variant-east-asian:normal;font-feature-settings:normal;font-variation-settings:normal;text-indent:0;text-align:start;text-decoration:none;text-decoration-line:none;text-decoration-style:solid;text-decoration-color:#000000;letter-spacing:normal;word-spacing:normal;text-transform:none;writing-mode:lr-tb;direction:ltr;text-orientation:mixed;dominant-baseline:auto;baseline-shift:baseline;text-anchor:start;white-space:normal;shape-padding:0;shape-margin:0;inline-size:0;clip-rule:nonzero;display:inline;overflow:visible;visibility:visible;isolation:auto;mix-blend-mode:normal;color-interpolation:sRGB;color-interpolation-filters:linearRGB;solid-color:#000000;solid-opacity:1;vector-effect:none;fill:#000000;fill-opacity:1;fill-rule:nonzero;stroke:none;stroke-width:2.11667;stroke-linecap:butt;stroke-linejoin:miter;stroke-miterlimit:4;stroke-dasharray:none;stroke-dashoffset:0;stroke-opacity:1;color-rendering:auto;image-rendering:auto;shape-rendering:auto;text-rendering:auto;enable-background:accumulate;stop-color:#000000;stop-opacity:1;opacity:1"
       d="M 258.70898 99.5 C 258.70898 99.5 258.00314 136.00661 260.17383 180.98438 C 262.34451 225.96214 267.36156 279.38724 278.93555 313.48047 L 280.93945 312.79883 C 269.52266 279.16867 264.45407 225.78343 262.28711 180.88281 C 260.12015 135.98219 260.82422 99.541016 260.82422 99.541016 L 258.70898 99.5 z "
       id="path906" />
  </g>
  <g
     inkscape:label="P"
     inkscape:groupmode="layer"
     id="layer1"
     transform="translate(-13.125885,-81.099339)"
     style="display:inline">
    <text
       xml:space="preserve"
       id="text16"
       style="font-style:normal;font-variant:normal;font-weight:normal;font-stretch:normal;font-size:105.833px;line-height:1.25;font-family:'Eras Bold ITC';-inkscape-font-specification:'Eras Bold ITC';white-space:pre;shape-inside:url(#rect18);fill:#000000;fill-opacity:1;stroke:none;" />
    <text
       xml:space="preserve"
       style="font-style:normal;font-variant:normal;font-weight:normal;font-stretch:normal;font-size:105.833px;line-height:1.25;font-family:'Eras Bold ITC';-inkscape-font-specification:'Eras Bold ITC';fill:#000000;fill-opacity:1;stroke:none;stroke-width:0.264583"
       x="117.17262"
       y="142.11905"
       id="text24"><tspan
         sodipodi:role="line"
         id="tspan22"
         x="117.17262"
         y="142.11905"
         style="font-style:normal;font-variant:normal;font-weight:normal;font-stretch:normal;font-size:105.833px;font-family:'Eras Bold ITC';-inkscape-font-specification:'Eras Bold ITC';stroke-width:0.264583" /></text>
    <text
       xml:space="preserve"
       id="text26"
       style="font-style:normal;font-variant:normal;font-weight:normal;font-stretch:normal;font-size:105.833px;line-height:1.25;font-family:'Eras Bold ITC';-inkscape-font-specification:'Eras Bold ITC';white-space:pre;shape-inside:url(#rect28);fill:#000000;fill-opacity:1;stroke:none;" />
    <text
       xml:space="preserve"
       id="text32"
       style="font-style:normal;font-variant:normal;font-weight:normal;font-stretch:normal;font-size:105.833px;line-height:1.25;font-family:'Eras Bold ITC';-inkscape-font-specification:'Eras Bold ITC';white-space:pre;shape-inside:url(#rect34);fill:#000000;fill-opacity:1;stroke:none;" />
    <text
       xml:space="preserve"
       style="font-style:normal;font-weight:normal;font-size:10.5833px;line-height:1.25;font-family:sans-serif;fill:#000000;fill-opacity:1;stroke:none;stroke-width:0.264583"
       x="28.726189"
       y="17.386906"
       id="text40"><tspan
         id="tspan38"
         x="28.726189"
         y="17.386906"
         style="stroke-width:0.264583"
         sodipodi:role="line" /></text>
    <text
       xml:space="preserve"
       id="text50"
       style="font-style:normal;font-weight:normal;font-size:10.5833px;line-height:1.25;font-family:sans-serif;white-space:pre;shape-inside:url(#rect52);fill:#000000;fill-opacity:1;stroke:none;" />
  </g>
</svg>
